<?xml version="1.0" encoding="UTF-8"?>
<svg xmlns="http://www.w3.org/2000/svg" xmlns:xlink="http://www.w3.org/1999/xlink" width="32px" height="32px" viewBox="0 0 32 32" version="1.1">
<defs>
<linearGradient id="linear0" gradientUnits="userSpaceOnUse" x1="6" y1="32" x2="26" y2="2" >
<stop offset="0" style="stop-color:rgb(20.784314%,22.745098%,54.117647%);stop-opacity:1;"/>
<stop offset="1" style="stop-color:rgb(83.137255%,68.627451%,21.568627%);stop-opacity:1;"/>
</linearGradient>
</defs>
<g id="surface1">
<path style=" stroke:none; fill-rule:nonzero; fill:url(#linear0);" d="M 16 2 C 8.269531 2 2 8.269531 2 16 C 2 23.730469 8.269531 30 16 30 C 23.730469 30 30 23.730469 30 16 C 30 8.269531 23.730469 2 16 2 Z M 16 6 C 18.207031 6 20 7.792969 20 10 C 20 12.207031 18.207031 14 16 14 C 13.792969 14 12 12.207031 12 10 C 12 7.792969 13.792969 6 16 6 Z M 16 24 C 12.6875 24 9.601562 22.609375 7.5 19.90625 C 7.539062 17.253906 12.929688 15.800781 16 15.800781 C 19.050781 15.800781 24.457031 17.253906 24.5 19.90625 C 22.398438 22.609375 19.3125 24 16 24 Z M 16 24 "/>
</g>
</svg>